solid OpenSCAD_Model
  facet normal 0.994522 0.104528 0
    outer loop
      vertex 5.35 0 17
      vertex 5.23309 1.11233 0
      vertex 5.23309 1.11233 17
    endloop
  endfacet
  facet normal 0.994522 0.104528 0
    outer loop
      vertex 5.23309 1.11233 0
      vertex 5.35 0 17
      vertex 5.35 0 0
    endloop
  endfacet
  facet normal -0.994522 0.104528 0
    outer loop
      vertex -5.35 0 0
      vertex -5.23309 1.11233 17
      vertex -5.23309 1.11233 0
    endloop
  endfacet
  facet normal -0.994522 0.104528 0
    outer loop
      vertex -5.23309 1.11233 17
      vertex -5.35 0 0
      vertex -5.35 0 17
    endloop
  endfacet
  facet normal 0 1 -0
    outer loop
      vertex 0.559227 5.32069 0
      vertex -0.559227 5.32069 17
      vertex 0.559227 5.32069 17
    endloop
  endfacet
  facet normal 0 1 0
    outer loop
      vertex -0.559227 5.32069 17
      vertex 0.559227 5.32069 0
      vertex -0.559227 5.32069 0
    endloop
  endfacet
  facet normal 0 -1 0
    outer loop
      vertex -0.559227 -5.32069 0
      vertex 0.559227 -5.32069 17
      vertex -0.559227 -5.32069 17
    endloop
  endfacet
  facet normal 0 -1 -0
    outer loop
      vertex 0.559227 -5.32069 17
      vertex -0.559227 -5.32069 0
      vertex 0.559227 -5.32069 0
    endloop
  endfacet
  facet normal 0.743144 0.669131 0
    outer loop
      vertex 4.32824 3.14465 17
      vertex 3.57985 3.97582 0
      vertex 3.57985 3.97582 17
    endloop
  endfacet
  facet normal 0.743144 0.669131 0
    outer loop
      vertex 3.57985 3.97582 0
      vertex 4.32824 3.14465 17
      vertex 4.32824 3.14465 0
    endloop
  endfacet
  facet normal -0.587778 0.809023 0
    outer loop
      vertex -2.675 4.63323 17
      vertex -2.99602 4.4 3
      vertex -2.99602 4.4 17
    endloop
  endfacet
  facet normal -0.587775 0.809025 4.34338e-07
    outer loop
      vertex -2.99602 4.4 3
      vertex -2.675 4.63323 0
      vertex -3.15 4.28813 3
    endloop
  endfacet
  facet normal -0.587778 0.809023 0
    outer loop
      vertex -2.675 4.63323 0
      vertex -2.99602 4.4 3
      vertex -2.675 4.63323 17
    endloop
  endfacet
  facet normal -0.587792 0.809012 0
    outer loop
      vertex -3.15 4.28813 3
      vertex -3.57985 3.97582 17
      vertex -3.15 4.28813 17
    endloop
  endfacet
  facet normal -0.587792 0.809012 0
    outer loop
      vertex -3.15 4.28813 3
      vertex -3.57985 3.97582 0
      vertex -3.57985 3.97582 17
    endloop
  endfacet
  facet normal -0.587784 0.809018 -1.79265e-06
    outer loop
      vertex -3.57985 3.97582 0
      vertex -3.15 4.28813 3
      vertex -2.675 4.63323 0
    endloop
  endfacet
  facet normal -0.207912 0.978148 0
    outer loop
      vertex -0.559227 5.32069 0
      vertex -1.65324 5.08815 17
      vertex -0.559227 5.32069 17
    endloop
  endfacet
  facet normal -0.207912 0.978148 0
    outer loop
      vertex -1.65324 5.08815 17
      vertex -0.559227 5.32069 0
      vertex -1.65324 5.08815 0
    endloop
  endfacet
  facet normal 0.866024 -0.500002 0
    outer loop
      vertex 4.32824 -3.14465 17
      vertex 4.88747 -2.17604 0
      vertex 4.88747 -2.17604 17
    endloop
  endfacet
  facet normal 0.866024 -0.500002 0
    outer loop
      vertex 4.88747 -2.17604 0
      vertex 4.32824 -3.14465 17
      vertex 4.32824 -3.14465 0
    endloop
  endfacet
  facet normal 0.866024 0.500002 0
    outer loop
      vertex 4.88747 2.17604 17
      vertex 4.32824 3.14465 0
      vertex 4.32824 3.14465 17
    endloop
  endfacet
  facet normal 0.866024 0.500002 0
    outer loop
      vertex 4.32824 3.14465 0
      vertex 4.88747 2.17604 17
      vertex 4.88747 2.17604 0
    endloop
  endfacet
  facet normal 0.951057 0.309017 0
    outer loop
      vertex 5.23309 1.11233 17
      vertex 4.88747 2.17604 0
      vertex 4.88747 2.17604 17
    endloop
  endfacet
  facet normal 0.951057 0.309017 0
    outer loop
      vertex 4.88747 2.17604 0
      vertex 5.23309 1.11233 17
      vertex 5.23309 1.11233 0
    endloop
  endfacet
  facet normal 0.406739 0.913544 -0
    outer loop
      vertex 2.675 4.63323 0
      vertex 1.65324 5.08815 17
      vertex 2.675 4.63323 17
    endloop
  endfacet
  facet normal 0.406739 0.913544 0
    outer loop
      vertex 1.65324 5.08815 17
      vertex 2.675 4.63323 0
      vertex 1.65324 5.08815 0
    endloop
  endfacet
  facet normal 0.207912 0.978148 -0
    outer loop
      vertex 1.65324 5.08815 0
      vertex 0.559227 5.32069 17
      vertex 1.65324 5.08815 17
    endloop
  endfacet
  facet normal 0.207912 0.978148 0
    outer loop
      vertex 0.559227 5.32069 17
      vertex 1.65324 5.08815 0
      vertex 0.559227 5.32069 0
    endloop
  endfacet
  facet normal 0.587792 0.809012 0
    outer loop
      vertex 3.57985 3.97582 17
      vertex 3.15 4.28813 3
      vertex 3.15 4.28813 17
    endloop
  endfacet
  facet normal 0.587784 0.809018 -1.79265e-06
    outer loop
      vertex 2.675 4.63323 0
      vertex 3.15 4.28813 3
      vertex 3.57985 3.97582 0
    endloop
  endfacet
  facet normal 0.587792 0.809012 -0
    outer loop
      vertex 3.57985 3.97582 0
      vertex 3.15 4.28813 3
      vertex 3.57985 3.97582 17
    endloop
  endfacet
  facet normal 0.587778 0.809023 -0
    outer loop
      vertex 2.99602 4.4 3
      vertex 2.675 4.63323 17
      vertex 2.99602 4.4 17
    endloop
  endfacet
  facet normal 0.587778 0.809023 0
    outer loop
      vertex 2.99602 4.4 3
      vertex 2.675 4.63323 0
      vertex 2.675 4.63323 17
    endloop
  endfacet
  facet normal 0.587775 0.809025 4.34338e-07
    outer loop
      vertex 3.15 4.28813 3
      vertex 2.675 4.63323 0
      vertex 2.99602 4.4 3
    endloop
  endfacet
  facet normal -0.866024 0.500002 0
    outer loop
      vertex -4.88747 2.17604 0
      vertex -4.32824 3.14465 17
      vertex -4.32824 3.14465 0
    endloop
  endfacet
  facet normal -0.866024 0.500002 0
    outer loop
      vertex -4.32824 3.14465 17
      vertex -4.88747 2.17604 0
      vertex -4.88747 2.17604 17
    endloop
  endfacet
  facet normal -0.743144 0.669131 0
    outer loop
      vertex -4.32824 3.14465 0
      vertex -3.57985 3.97582 17
      vertex -3.57985 3.97582 0
    endloop
  endfacet
  facet normal -0.743144 0.669131 0
    outer loop
      vertex -3.57985 3.97582 17
      vertex -4.32824 3.14465 0
      vertex -4.32824 3.14465 17
    endloop
  endfacet
  facet normal -0.951057 0.309017 0
    outer loop
      vertex -5.23309 1.11233 0
      vertex -4.88747 2.17604 17
      vertex -4.88747 2.17604 0
    endloop
  endfacet
  facet normal -0.951057 0.309017 0
    outer loop
      vertex -4.88747 2.17604 17
      vertex -5.23309 1.11233 0
      vertex -5.23309 1.11233 17
    endloop
  endfacet
  facet normal 0 0 1
    outer loop
      vertex 3.15 0 17
      vertex 5.35 0 17
      vertex 5.23309 1.11233 17
    endloop
  endfacet
  facet normal 0 0 1
    outer loop
      vertex 3.08116 0.654922 17
      vertex 5.23309 1.11233 17
      vertex 4.88747 2.17604 17
    endloop
  endfacet
  facet normal 0 0 1
    outer loop
      vertex 5.35 0 17
      vertex 3.15 0 17
      vertex 5.23309 -1.11233 17
    endloop
  endfacet
  facet normal 0 0 1
    outer loop
      vertex 2.87767 1.28122 17
      vertex 4.88747 2.17604 17
      vertex 4.32824 3.14465 17
    endloop
  endfacet
  facet normal -0 0 1
    outer loop
      vertex 3.08116 -0.654922 17
      vertex 5.23309 -1.11233 17
      vertex 3.15 0 17
    endloop
  endfacet
  facet normal 0 0 1
    outer loop
      vertex 2.5484 1.85152 17
      vertex 4.32824 3.14465 17
      vertex 3.57985 3.97582 17
    endloop
  endfacet
  facet normal 0 0 1
    outer loop
      vertex 5.23309 -1.11233 17
      vertex 3.08116 -0.654922 17
      vertex 4.88747 -2.17604 17
    endloop
  endfacet
  facet normal 0 0 1
    outer loop
      vertex 2.10776 2.34091 17
      vertex 3.57985 3.97582 17
      vertex 3.15 4.28813 17
    endloop
  endfacet
  facet normal -0 0 1
    outer loop
      vertex 2.87767 -1.28122 17
      vertex 4.88747 -2.17604 17
      vertex 3.08116 -0.654922 17
    endloop
  endfacet
  facet normal 0 0 1
    outer loop
      vertex 4.88747 -2.17604 17
      vertex 2.87767 -1.28122 17
      vertex 4.32824 -3.14465 17
    endloop
  endfacet
  facet normal -0 0 1
    outer loop
      vertex 2.5484 -1.85152 17
      vertex 4.32824 -3.14465 17
      vertex 2.87767 -1.28122 17
    endloop
  endfacet
  facet normal 0 0 1
    outer loop
      vertex 4.32824 -3.14465 17
      vertex 2.5484 -1.85152 17
      vertex 3.57985 -3.97582 17
    endloop
  endfacet
  facet normal -0 0 1
    outer loop
      vertex 2.10776 -2.34091 17
      vertex 3.57985 -3.97582 17
      vertex 2.5484 -1.85152 17
    endloop
  endfacet
  facet normal 0 0 1
    outer loop
      vertex 3.57985 -3.97582 17
      vertex 2.10776 -2.34091 17
      vertex 2.675 -4.63323 17
    endloop
  endfacet
  facet normal -0 0 1
    outer loop
      vertex 1.575 -2.72798 17
      vertex 2.675 -4.63323 17
      vertex 2.10776 -2.34091 17
    endloop
  endfacet
  facet normal 0 0 1
    outer loop
      vertex 2.675 -4.63323 17
      vertex 1.575 -2.72798 17
      vertex 1.65324 -5.08815 17
    endloop
  endfacet
  facet normal -0 0 1
    outer loop
      vertex 0.973403 -2.99583 17
      vertex 1.65324 -5.08815 17
      vertex 1.575 -2.72798 17
    endloop
  endfacet
  facet normal 0 0 1
    outer loop
      vertex 0.973403 -2.99583 17
      vertex 0.559227 -5.32069 17
      vertex 1.65324 -5.08815 17
    endloop
  endfacet
  facet normal -0 0 1
    outer loop
      vertex 0.329265 -3.13274 17
      vertex 0.559227 -5.32069 17
      vertex 0.973403 -2.99583 17
    endloop
  endfacet
  facet normal -0 0 1
    outer loop
      vertex -0.329265 -3.13274 17
      vertex 0.559227 -5.32069 17
      vertex 0.329265 -3.13274 17
    endloop
  endfacet
  facet normal 0 0 1
    outer loop
      vertex -0.329265 -3.13274 17
      vertex -0.559227 -5.32069 17
      vertex 0.559227 -5.32069 17
    endloop
  endfacet
  facet normal 0 0 1
    outer loop
      vertex -0.973403 -2.99583 17
      vertex -0.559227 -5.32069 17
      vertex -0.329265 -3.13274 17
    endloop
  endfacet
  facet normal 0 0 1
    outer loop
      vertex -1.65324 -5.08815 17
      vertex -0.973403 -2.99583 17
      vertex -1.575 -2.72798 17
    endloop
  endfacet
  facet normal 0 0 1
    outer loop
      vertex -0.973403 -2.99583 17
      vertex -1.65324 -5.08815 17
      vertex -0.559227 -5.32069 17
    endloop
  endfacet
  facet normal 0 0 1
    outer loop
      vertex -2.675 -4.63323 17
      vertex -1.575 -2.72798 17
      vertex -2.10776 -2.34091 17
    endloop
  endfacet
  facet normal 0 0 1
    outer loop
      vertex -3.57985 -3.97582 17
      vertex -2.10776 -2.34091 17
      vertex -2.5484 -1.85152 17
    endloop
  endfacet
  facet normal 0 0 1
    outer loop
      vertex -1.575 -2.72798 17
      vertex -2.675 -4.63323 17
      vertex -1.65324 -5.08815 17
    endloop
  endfacet
  facet normal 0 0 1
    outer loop
      vertex -4.32824 -3.14465 17
      vertex -2.5484 -1.85152 17
      vertex -2.87767 -1.28122 17
    endloop
  endfacet
  facet normal 0 0 1
    outer loop
      vertex -4.88747 -2.17604 17
      vertex -2.87767 -1.28122 17
      vertex -3.08116 -0.654922 17
    endloop
  endfacet
  facet normal 0 0 1
    outer loop
      vertex -5.23309 -1.11233 17
      vertex -3.08116 -0.654922 17
      vertex -3.15 0 17
    endloop
  endfacet
  facet normal 0 0 1
    outer loop
      vertex -2.87767 1.28122 17
      vertex -4.88747 2.17604 17
      vertex -3.08116 0.654922 17
    endloop
  endfacet
  facet normal 0 0 1
    outer loop
      vertex -2.10776 -2.34091 17
      vertex -3.57985 -3.97582 17
      vertex -2.675 -4.63323 17
    endloop
  endfacet
  facet normal -0 0 1
    outer loop
      vertex -5.23309 1.11233 17
      vertex -3.08116 0.654922 17
      vertex -4.88747 2.17604 17
    endloop
  endfacet
  facet normal 0 0 1
    outer loop
      vertex -2.5484 -1.85152 17
      vertex -4.32824 -3.14465 17
      vertex -3.57985 -3.97582 17
    endloop
  endfacet
  facet normal 0 0 1
    outer loop
      vertex -3.08116 0.654922 17
      vertex -5.23309 1.11233 17
      vertex -3.15 0 17
    endloop
  endfacet
  facet normal 0 0 1
    outer loop
      vertex -2.87767 -1.28122 17
      vertex -4.88747 -2.17604 17
      vertex -4.32824 -3.14465 17
    endloop
  endfacet
  facet normal 0 0 1
    outer loop
      vertex -5.35 0 17
      vertex -3.15 0 17
      vertex -5.23309 1.11233 17
    endloop
  endfacet
  facet normal 0 0 1
    outer loop
      vertex -3.08116 -0.654922 17
      vertex -5.23309 -1.11233 17
      vertex -4.88747 -2.17604 17
    endloop
  endfacet
  facet normal 0 0 1
    outer loop
      vertex -3.15 0 17
      vertex -5.35 0 17
      vertex -5.23309 -1.11233 17
    endloop
  endfacet
  facet normal -0 0 1
    outer loop
      vertex 2.99602 4.4 17
      vertex 3.15 4.28813 17
      vertex 3.15 4.4 17
    endloop
  endfacet
  facet normal 0 0 1
    outer loop
      vertex 5.23309 1.11233 17
      vertex 3.08116 0.654922 17
      vertex 3.15 0 17
    endloop
  endfacet
  facet normal 0 0 1
    outer loop
      vertex 2.02643 2.4 17
      vertex 3.15 4.28813 17
      vertex 2.99602 4.4 17
    endloop
  endfacet
  facet normal 0 0 1
    outer loop
      vertex 4.88747 2.17604 17
      vertex 2.87767 1.28122 17
      vertex 3.08116 0.654922 17
    endloop
  endfacet
  facet normal 0 0 1
    outer loop
      vertex 2.02643 2.4 17
      vertex 2.99602 4.4 17
      vertex 2.675 4.63323 17
    endloop
  endfacet
  facet normal 0 0 1
    outer loop
      vertex 4.32824 3.14465 17
      vertex 2.5484 1.85152 17
      vertex 2.87767 1.28122 17
    endloop
  endfacet
  facet normal 0 0 1
    outer loop
      vertex 3.57985 3.97582 17
      vertex 2.10776 2.34091 17
      vertex 2.5484 1.85152 17
    endloop
  endfacet
  facet normal 0 0 1
    outer loop
      vertex 3.15 4.28813 17
      vertex 2.02643 2.4 17
      vertex 2.10776 2.34091 17
    endloop
  endfacet
  facet normal 0 0 1
    outer loop
      vertex 1.65324 5.08815 17
      vertex 2.02643 2.4 17
      vertex 2.675 4.63323 17
    endloop
  endfacet
  facet normal 0 0 1
    outer loop
      vertex 0.559227 5.32069 17
      vertex 2.02643 2.4 17
      vertex 1.65324 5.08815 17
    endloop
  endfacet
  facet normal -0 0 1
    outer loop
      vertex -0.559227 5.32069 17
      vertex 2.02643 2.4 17
      vertex 0.559227 5.32069 17
    endloop
  endfacet
  facet normal 0 0 1
    outer loop
      vertex -2.02643 2.4 17
      vertex -0.559227 5.32069 17
      vertex -1.65324 5.08815 17
    endloop
  endfacet
  facet normal 0 0 1
    outer loop
      vertex -0.559227 5.32069 17
      vertex -2.02643 2.4 17
      vertex 2.02643 2.4 17
    endloop
  endfacet
  facet normal -0 0 1
    outer loop
      vertex -2.675 4.63323 17
      vertex -2.02643 2.4 17
      vertex -1.65324 5.08815 17
    endloop
  endfacet
  facet normal -0 0 1
    outer loop
      vertex -2.99602 4.4 17
      vertex -2.02643 2.4 17
      vertex -2.675 4.63323 17
    endloop
  endfacet
  facet normal -0 0 1
    outer loop
      vertex -3.15 4.28813 17
      vertex -2.02643 2.4 17
      vertex -2.99602 4.4 17
    endloop
  endfacet
  facet normal 0 0 1
    outer loop
      vertex -2.02643 2.4 17
      vertex -3.15 4.28813 17
      vertex -2.10776 2.34091 17
    endloop
  endfacet
  facet normal -0 0 1
    outer loop
      vertex -3.57985 3.97582 17
      vertex -2.10776 2.34091 17
      vertex -3.15 4.28813 17
    endloop
  endfacet
  facet normal 0 0 1
    outer loop
      vertex -2.10776 2.34091 17
      vertex -3.57985 3.97582 17
      vertex -2.5484 1.85152 17
    endloop
  endfacet
  facet normal 0 0 1
    outer loop
      vertex -3.15 4.28813 17
      vertex -2.99602 4.4 17
      vertex -3.15 4.4 17
    endloop
  endfacet
  facet normal -0 0 1
    outer loop
      vertex -4.32824 3.14465 17
      vertex -2.5484 1.85152 17
      vertex -3.57985 3.97582 17
    endloop
  endfacet
  facet normal 0 0 1
    outer loop
      vertex -2.5484 1.85152 17
      vertex -4.32824 3.14465 17
      vertex -2.87767 1.28122 17
    endloop
  endfacet
  facet normal -0 0 1
    outer loop
      vertex -4.88747 2.17604 17
      vertex -2.87767 1.28122 17
      vertex -4.32824 3.14465 17
    endloop
  endfacet
  facet normal -0.406739 0.913544 0
    outer loop
      vertex -1.65324 5.08815 0
      vertex -2.675 4.63323 17
      vertex -1.65324 5.08815 17
    endloop
  endfacet
  facet normal -0.406739 0.913544 0
    outer loop
      vertex -2.675 4.63323 17
      vertex -1.65324 5.08815 0
      vertex -2.675 4.63323 0
    endloop
  endfacet
  facet normal 0 0 -1
    outer loop
      vertex 5.23309 -1.11233 0
      vertex 5.23309 1.11233 0
      vertex 5.35 0 0
    endloop
  endfacet
  facet normal 0 0 -1
    outer loop
      vertex 4.88747 -2.17604 0
      vertex 5.23309 1.11233 0
      vertex 5.23309 -1.11233 0
    endloop
  endfacet
  facet normal 0 0 -1
    outer loop
      vertex 4.88747 -2.17604 0
      vertex 4.88747 2.17604 0
      vertex 5.23309 1.11233 0
    endloop
  endfacet
  facet normal 0 0 -1
    outer loop
      vertex 4.32824 -3.14465 0
      vertex 4.88747 2.17604 0
      vertex 4.88747 -2.17604 0
    endloop
  endfacet
  facet normal 0 0 -1
    outer loop
      vertex 4.32824 -3.14465 0
      vertex 4.32824 3.14465 0
      vertex 4.88747 2.17604 0
    endloop
  endfacet
  facet normal 0 0 -1
    outer loop
      vertex 3.57985 -3.97582 0
      vertex 4.32824 3.14465 0
      vertex 4.32824 -3.14465 0
    endloop
  endfacet
  facet normal 0 0 -1
    outer loop
      vertex 3.57985 -3.97582 0
      vertex 3.57985 3.97582 0
      vertex 4.32824 3.14465 0
    endloop
  endfacet
  facet normal 0 0 -1
    outer loop
      vertex 2.675 -4.63323 0
      vertex 3.57985 3.97582 0
      vertex 3.57985 -3.97582 0
    endloop
  endfacet
  facet normal 0 0 -1
    outer loop
      vertex 2.675 -4.63323 0
      vertex 2.675 4.63323 0
      vertex 3.57985 3.97582 0
    endloop
  endfacet
  facet normal 0 0 -1
    outer loop
      vertex 1.65324 -5.08815 0
      vertex 2.675 4.63323 0
      vertex 2.675 -4.63323 0
    endloop
  endfacet
  facet normal 0 0 -1
    outer loop
      vertex 1.65324 -5.08815 0
      vertex 1.65324 5.08815 0
      vertex 2.675 4.63323 0
    endloop
  endfacet
  facet normal 0 0 -1
    outer loop
      vertex 0.559227 -5.32069 0
      vertex 1.65324 5.08815 0
      vertex 1.65324 -5.08815 0
    endloop
  endfacet
  facet normal 0 0 -1
    outer loop
      vertex 0.559227 -5.32069 0
      vertex 0.559227 5.32069 0
      vertex 1.65324 5.08815 0
    endloop
  endfacet
  facet normal 0 0 -1
    outer loop
      vertex -0.559227 -5.32069 0
      vertex 0.559227 5.32069 0
      vertex 0.559227 -5.32069 0
    endloop
  endfacet
  facet normal 0 0 -1
    outer loop
      vertex -0.559227 -5.32069 0
      vertex -0.559227 5.32069 0
      vertex 0.559227 5.32069 0
    endloop
  endfacet
  facet normal 0 0 -1
    outer loop
      vertex -1.65324 -5.08815 0
      vertex -0.559227 5.32069 0
      vertex -0.559227 -5.32069 0
    endloop
  endfacet
  facet normal 0 0 -1
    outer loop
      vertex -1.65324 -5.08815 0
      vertex -1.65324 5.08815 0
      vertex -0.559227 5.32069 0
    endloop
  endfacet
  facet normal 0 0 -1
    outer loop
      vertex -2.675 -4.63323 0
      vertex -1.65324 5.08815 0
      vertex -1.65324 -5.08815 0
    endloop
  endfacet
  facet normal 0 0 -1
    outer loop
      vertex -2.675 -4.63323 0
      vertex -2.675 4.63323 0
      vertex -1.65324 5.08815 0
    endloop
  endfacet
  facet normal 0 0 -1
    outer loop
      vertex -3.57985 -3.97582 0
      vertex -2.675 4.63323 0
      vertex -2.675 -4.63323 0
    endloop
  endfacet
  facet normal 0 0 -1
    outer loop
      vertex -3.57985 -3.97582 0
      vertex -3.57985 3.97582 0
      vertex -2.675 4.63323 0
    endloop
  endfacet
  facet normal 0 0 -1
    outer loop
      vertex -4.32824 -3.14465 0
      vertex -3.57985 3.97582 0
      vertex -3.57985 -3.97582 0
    endloop
  endfacet
  facet normal 0 0 -1
    outer loop
      vertex -4.32824 -3.14465 0
      vertex -4.32824 3.14465 0
      vertex -3.57985 3.97582 0
    endloop
  endfacet
  facet normal 0 0 -1
    outer loop
      vertex -4.88747 -2.17604 0
      vertex -4.32824 3.14465 0
      vertex -4.32824 -3.14465 0
    endloop
  endfacet
  facet normal 0 0 -1
    outer loop
      vertex -4.88747 -2.17604 0
      vertex -4.88747 2.17604 0
      vertex -4.32824 3.14465 0
    endloop
  endfacet
  facet normal 0 0 -1
    outer loop
      vertex -5.23309 -1.11233 0
      vertex -4.88747 2.17604 0
      vertex -4.88747 -2.17604 0
    endloop
  endfacet
  facet normal 0 0 -1
    outer loop
      vertex -5.23309 -1.11233 0
      vertex -5.23309 1.11233 0
      vertex -4.88747 2.17604 0
    endloop
  endfacet
  facet normal 0 -0 -1
    outer loop
      vertex -5.23309 1.11233 0
      vertex -5.23309 -1.11233 0
      vertex -5.35 0 0
    endloop
  endfacet
  facet normal 0.587784 -0.809018 0
    outer loop
      vertex 2.675 -4.63323 0
      vertex 3.57985 -3.97582 17
      vertex 2.675 -4.63323 17
    endloop
  endfacet
  facet normal 0.587784 -0.809018 0
    outer loop
      vertex 3.57985 -3.97582 17
      vertex 2.675 -4.63323 0
      vertex 3.57985 -3.97582 0
    endloop
  endfacet
  facet normal 0.743144 -0.669131 0
    outer loop
      vertex 3.57985 -3.97582 17
      vertex 4.32824 -3.14465 0
      vertex 4.32824 -3.14465 17
    endloop
  endfacet
  facet normal 0.743144 -0.669131 0
    outer loop
      vertex 4.32824 -3.14465 0
      vertex 3.57985 -3.97582 17
      vertex 3.57985 -3.97582 0
    endloop
  endfacet
  facet normal 0.951057 -0.309017 0
    outer loop
      vertex 4.88747 -2.17604 17
      vertex 5.23309 -1.11233 0
      vertex 5.23309 -1.11233 17
    endloop
  endfacet
  facet normal 0.951057 -0.309017 0
    outer loop
      vertex 5.23309 -1.11233 0
      vertex 4.88747 -2.17604 17
      vertex 4.88747 -2.17604 0
    endloop
  endfacet
  facet normal 0.994522 -0.104528 0
    outer loop
      vertex 5.23309 -1.11233 17
      vertex 5.35 0 0
      vertex 5.35 0 17
    endloop
  endfacet
  facet normal 0.994522 -0.104528 0
    outer loop
      vertex 5.35 0 0
      vertex 5.23309 -1.11233 17
      vertex 5.23309 -1.11233 0
    endloop
  endfacet
  facet normal -0.406739 -0.913544 0
    outer loop
      vertex -2.675 -4.63323 0
      vertex -1.65324 -5.08815 17
      vertex -2.675 -4.63323 17
    endloop
  endfacet
  facet normal -0.406739 -0.913544 -0
    outer loop
      vertex -1.65324 -5.08815 17
      vertex -2.675 -4.63323 0
      vertex -1.65324 -5.08815 0
    endloop
  endfacet
  facet normal -0.866024 -0.500002 0
    outer loop
      vertex -4.32824 -3.14465 0
      vertex -4.88747 -2.17604 17
      vertex -4.88747 -2.17604 0
    endloop
  endfacet
  facet normal -0.866024 -0.500002 0
    outer loop
      vertex -4.88747 -2.17604 17
      vertex -4.32824 -3.14465 0
      vertex -4.32824 -3.14465 17
    endloop
  endfacet
  facet normal -0.207912 -0.978148 0
    outer loop
      vertex -1.65324 -5.08815 0
      vertex -0.559227 -5.32069 17
      vertex -1.65324 -5.08815 17
    endloop
  endfacet
  facet normal -0.207912 -0.978148 -0
    outer loop
      vertex -0.559227 -5.32069 17
      vertex -1.65324 -5.08815 0
      vertex -0.559227 -5.32069 0
    endloop
  endfacet
  facet normal -0.587784 -0.809018 0
    outer loop
      vertex -3.57985 -3.97582 0
      vertex -2.675 -4.63323 17
      vertex -3.57985 -3.97582 17
    endloop
  endfacet
  facet normal -0.587784 -0.809018 -0
    outer loop
      vertex -2.675 -4.63323 17
      vertex -3.57985 -3.97582 0
      vertex -2.675 -4.63323 0
    endloop
  endfacet
  facet normal -0.743144 -0.669131 0
    outer loop
      vertex -3.57985 -3.97582 0
      vertex -4.32824 -3.14465 17
      vertex -4.32824 -3.14465 0
    endloop
  endfacet
  facet normal -0.743144 -0.669131 0
    outer loop
      vertex -4.32824 -3.14465 17
      vertex -3.57985 -3.97582 0
      vertex -3.57985 -3.97582 17
    endloop
  endfacet
  facet normal -0.951057 -0.309017 0
    outer loop
      vertex -4.88747 -2.17604 0
      vertex -5.23309 -1.11233 17
      vertex -5.23309 -1.11233 0
    endloop
  endfacet
  facet normal -0.951057 -0.309017 0
    outer loop
      vertex -5.23309 -1.11233 17
      vertex -4.88747 -2.17604 0
      vertex -4.88747 -2.17604 17
    endloop
  endfacet
  facet normal -0.994522 -0.104528 0
    outer loop
      vertex -5.23309 -1.11233 0
      vertex -5.35 0 17
      vertex -5.35 0 0
    endloop
  endfacet
  facet normal -0.994522 -0.104528 0
    outer loop
      vertex -5.35 0 17
      vertex -5.23309 -1.11233 0
      vertex -5.23309 -1.11233 17
    endloop
  endfacet
  facet normal 0.406739 -0.913544 0
    outer loop
      vertex 1.65324 -5.08815 0
      vertex 2.675 -4.63323 17
      vertex 1.65324 -5.08815 17
    endloop
  endfacet
  facet normal 0.406739 -0.913544 0
    outer loop
      vertex 2.675 -4.63323 17
      vertex 1.65324 -5.08815 0
      vertex 2.675 -4.63323 0
    endloop
  endfacet
  facet normal 0.207912 -0.978148 0
    outer loop
      vertex 0.559227 -5.32069 0
      vertex 1.65324 -5.08815 17
      vertex 0.559227 -5.32069 17
    endloop
  endfacet
  facet normal 0.207912 -0.978148 0
    outer loop
      vertex 1.65324 -5.08815 17
      vertex 0.559227 -5.32069 0
      vertex 1.65324 -5.08815 0
    endloop
  endfacet
  facet normal -0.994521 -0.104536 0
    outer loop
      vertex 3.15 0 3
      vertex 3.08116 0.654922 17
      vertex 3.08116 0.654922 3
    endloop
  endfacet
  facet normal -0.994521 -0.104536 0
    outer loop
      vertex 3.08116 0.654922 17
      vertex 3.15 0 3
      vertex 3.15 0 17
    endloop
  endfacet
  facet normal 0.994521 -0.104536 0
    outer loop
      vertex -3.15 0 17
      vertex -3.08116 0.654922 3
      vertex -3.08116 0.654922 17
    endloop
  endfacet
  facet normal 0.994521 -0.104536 0
    outer loop
      vertex -3.08116 0.654922 3
      vertex -3.15 0 17
      vertex -3.15 0 3
    endloop
  endfacet
  facet normal 0 1 -0
    outer loop
      vertex 0.329265 -3.13274 3
      vertex -0.329265 -3.13274 17
      vertex 0.329265 -3.13274 17
    endloop
  endfacet
  facet normal 0 1 0
    outer loop
      vertex -0.329265 -3.13274 17
      vertex 0.329265 -3.13274 3
      vertex -0.329265 -3.13274 3
    endloop
  endfacet
  facet normal -0.743151 -0.669123 0
    outer loop
      vertex 2.5484 1.85152 3
      vertex 2.10776 2.34091 17
      vertex 2.10776 2.34091 3
    endloop
  endfacet
  facet normal -0.743151 -0.669123 0
    outer loop
      vertex 2.10776 2.34091 17
      vertex 2.5484 1.85152 3
      vertex 2.5484 1.85152 17
    endloop
  endfacet
  facet normal 0.587787 -0.809016 0
    outer loop
      vertex -2.10776 2.34091 3
      vertex -2.02643 2.4 17
      vertex -2.10776 2.34091 17
    endloop
  endfacet
  facet normal 0.587787 -0.809016 0
    outer loop
      vertex -2.02643 2.4 17
      vertex -2.10776 2.34091 3
      vertex -2.02643 2.4 3
    endloop
  endfacet
  facet normal -0.866021 -0.500008 0
    outer loop
      vertex 2.87767 1.28122 3
      vertex 2.5484 1.85152 17
      vertex 2.5484 1.85152 3
    endloop
  endfacet
  facet normal -0.866021 -0.500008 0
    outer loop
      vertex 2.5484 1.85152 17
      vertex 2.87767 1.28122 3
      vertex 2.87767 1.28122 17
    endloop
  endfacet
  facet normal -0.951059 -0.309008 0
    outer loop
      vertex 3.08116 0.654922 3
      vertex 2.87767 1.28122 17
      vertex 2.87767 1.28122 3
    endloop
  endfacet
  facet normal -0.951059 -0.309008 0
    outer loop
      vertex 2.87767 1.28122 17
      vertex 3.08116 0.654922 3
      vertex 3.08116 0.654922 17
    endloop
  endfacet
  facet normal -0.587787 -0.809016 0
    outer loop
      vertex 2.02643 2.4 3
      vertex 2.10776 2.34091 17
      vertex 2.02643 2.4 17
    endloop
  endfacet
  facet normal -0.587787 -0.809016 -0
    outer loop
      vertex 2.10776 2.34091 17
      vertex 2.02643 2.4 3
      vertex 2.10776 2.34091 3
    endloop
  endfacet
  facet normal 0.866021 -0.500008 0
    outer loop
      vertex -2.87767 1.28122 17
      vertex -2.5484 1.85152 3
      vertex -2.5484 1.85152 17
    endloop
  endfacet
  facet normal 0.866021 -0.500008 0
    outer loop
      vertex -2.5484 1.85152 3
      vertex -2.87767 1.28122 17
      vertex -2.87767 1.28122 3
    endloop
  endfacet
  facet normal 0.743151 -0.669123 0
    outer loop
      vertex -2.5484 1.85152 17
      vertex -2.10776 2.34091 3
      vertex -2.10776 2.34091 17
    endloop
  endfacet
  facet normal 0.743151 -0.669123 0
    outer loop
      vertex -2.10776 2.34091 3
      vertex -2.5484 1.85152 17
      vertex -2.5484 1.85152 3
    endloop
  endfacet
  facet normal 0.951059 -0.309008 0
    outer loop
      vertex -3.08116 0.654922 17
      vertex -2.87767 1.28122 3
      vertex -2.87767 1.28122 17
    endloop
  endfacet
  facet normal 0.951059 -0.309008 0
    outer loop
      vertex -2.87767 1.28122 3
      vertex -3.08116 0.654922 17
      vertex -3.08116 0.654922 3
    endloop
  endfacet
  facet normal -0.994521 0.104536 0
    outer loop
      vertex 3.08116 -0.654922 3
      vertex 3.15 0 17
      vertex 3.15 0 3
    endloop
  endfacet
  facet normal -0.994521 0.104536 0
    outer loop
      vertex 3.15 0 17
      vertex 3.08116 -0.654922 3
      vertex 3.08116 -0.654922 17
    endloop
  endfacet
  facet normal 0 0 -1
    outer loop
      vertex 3.15 4.28813 3
      vertex 2.99602 4.4 3
      vertex 3.15 4.4 3
    endloop
  endfacet
  facet normal -0 0 -1
    outer loop
      vertex -2.99602 4.4 3
      vertex -3.15 4.28813 3
      vertex -3.15 4.4 3
    endloop
  endfacet
  facet normal 0 0 1
    outer loop
      vertex 3.08116 0.654922 3
      vertex 3.08116 -0.654922 3
      vertex 3.15 0 3
    endloop
  endfacet
  facet normal 0 0 1
    outer loop
      vertex 2.87767 1.28122 3
      vertex 3.08116 -0.654922 3
      vertex 3.08116 0.654922 3
    endloop
  endfacet
  facet normal 0 0 1
    outer loop
      vertex 2.87767 1.28122 3
      vertex 2.87767 -1.28122 3
      vertex 3.08116 -0.654922 3
    endloop
  endfacet
  facet normal 0 0 1
    outer loop
      vertex 2.5484 1.85152 3
      vertex 2.87767 -1.28122 3
      vertex 2.87767 1.28122 3
    endloop
  endfacet
  facet normal 0 0 1
    outer loop
      vertex 2.02643 2.4 3
      vertex 2.87767 -1.28122 3
      vertex 2.5484 1.85152 3
    endloop
  endfacet
  facet normal 0 0 1
    outer loop
      vertex 2.02643 2.4 3
      vertex 2.5484 1.85152 3
      vertex 2.10776 2.34091 3
    endloop
  endfacet
  facet normal 0 0 1
    outer loop
      vertex 2.87767 -1.28122 3
      vertex 2.02643 2.4 3
      vertex 2.5484 -1.85152 3
    endloop
  endfacet
  facet normal 0 0 1
    outer loop
      vertex 2.5484 -1.85152 3
      vertex 2.02643 2.4 3
      vertex 2.10776 -2.34091 3
    endloop
  endfacet
  facet normal 0 0 1
    outer loop
      vertex 2.02643 2.4 3
      vertex 1.575 -2.72798 3
      vertex 2.10776 -2.34091 3
    endloop
  endfacet
  facet normal 0 0 1
    outer loop
      vertex 2.02643 2.4 3
      vertex 0.973403 -2.99583 3
      vertex 1.575 -2.72798 3
    endloop
  endfacet
  facet normal 0 0 1
    outer loop
      vertex 2.02643 2.4 3
      vertex 0.329265 -3.13274 3
      vertex 0.973403 -2.99583 3
    endloop
  endfacet
  facet normal 0 0 1
    outer loop
      vertex 2.02643 2.4 3
      vertex -0.329265 -3.13274 3
      vertex 0.329265 -3.13274 3
    endloop
  endfacet
  facet normal 0 0 1
    outer loop
      vertex 2.02643 2.4 3
      vertex -0.973403 -2.99583 3
      vertex -0.329265 -3.13274 3
    endloop
  endfacet
  facet normal 0 0 1
    outer loop
      vertex 2.02643 2.4 3
      vertex -1.575 -2.72798 3
      vertex -0.973403 -2.99583 3
    endloop
  endfacet
  facet normal -0 0 1
    outer loop
      vertex -2.02643 2.4 3
      vertex -1.575 -2.72798 3
      vertex 2.02643 2.4 3
    endloop
  endfacet
  facet normal 0 0 1
    outer loop
      vertex -2.5484 1.85152 3
      vertex -2.02643 2.4 3
      vertex -2.10776 2.34091 3
    endloop
  endfacet
  facet normal 0 0 1
    outer loop
      vertex -2.02643 2.4 3
      vertex -2.10776 -2.34091 3
      vertex -1.575 -2.72798 3
    endloop
  endfacet
  facet normal 0 0 1
    outer loop
      vertex -2.87767 1.28122 3
      vertex -2.02643 2.4 3
      vertex -2.5484 1.85152 3
    endloop
  endfacet
  facet normal 0 0 1
    outer loop
      vertex -2.02643 2.4 3
      vertex -2.5484 -1.85152 3
      vertex -2.10776 -2.34091 3
    endloop
  endfacet
  facet normal 0 0 1
    outer loop
      vertex -2.02643 2.4 3
      vertex -2.87767 1.28122 3
      vertex -2.5484 -1.85152 3
    endloop
  endfacet
  facet normal 0 0 1
    outer loop
      vertex -2.87767 1.28122 3
      vertex -2.87767 -1.28122 3
      vertex -2.5484 -1.85152 3
    endloop
  endfacet
  facet normal -0 0 1
    outer loop
      vertex -3.08116 0.654922 3
      vertex -2.87767 -1.28122 3
      vertex -2.87767 1.28122 3
    endloop
  endfacet
  facet normal 0 0 1
    outer loop
      vertex -3.08116 0.654922 3
      vertex -3.08116 -0.654922 3
      vertex -2.87767 -1.28122 3
    endloop
  endfacet
  facet normal 0 -0 1
    outer loop
      vertex -3.08116 -0.654922 3
      vertex -3.08116 0.654922 3
      vertex -3.15 0 3
    endloop
  endfacet
  facet normal -0.743151 0.669123 0
    outer loop
      vertex 2.10776 -2.34091 3
      vertex 2.5484 -1.85152 17
      vertex 2.5484 -1.85152 3
    endloop
  endfacet
  facet normal -0.743151 0.669123 0
    outer loop
      vertex 2.5484 -1.85152 17
      vertex 2.10776 -2.34091 3
      vertex 2.10776 -2.34091 17
    endloop
  endfacet
  facet normal -0.951059 0.309008 0
    outer loop
      vertex 2.87767 -1.28122 3
      vertex 3.08116 -0.654922 17
      vertex 3.08116 -0.654922 3
    endloop
  endfacet
  facet normal -0.951059 0.309008 0
    outer loop
      vertex 3.08116 -0.654922 17
      vertex 2.87767 -1.28122 3
      vertex 2.87767 -1.28122 17
    endloop
  endfacet
  facet normal -0.866021 0.500008 0
    outer loop
      vertex 2.5484 -1.85152 3
      vertex 2.87767 -1.28122 17
      vertex 2.87767 -1.28122 3
    endloop
  endfacet
  facet normal -0.866021 0.500008 0
    outer loop
      vertex 2.87767 -1.28122 17
      vertex 2.5484 -1.85152 3
      vertex 2.5484 -1.85152 17
    endloop
  endfacet
  facet normal 0.587782 0.809019 -0
    outer loop
      vertex -1.575 -2.72798 3
      vertex -2.10776 -2.34091 17
      vertex -1.575 -2.72798 17
    endloop
  endfacet
  facet normal 0.587782 0.809019 0
    outer loop
      vertex -2.10776 -2.34091 17
      vertex -1.575 -2.72798 3
      vertex -2.10776 -2.34091 3
    endloop
  endfacet
  facet normal 0.866021 0.500008 0
    outer loop
      vertex -2.5484 -1.85152 17
      vertex -2.87767 -1.28122 3
      vertex -2.87767 -1.28122 17
    endloop
  endfacet
  facet normal 0.866021 0.500008 0
    outer loop
      vertex -2.87767 -1.28122 3
      vertex -2.5484 -1.85152 17
      vertex -2.5484 -1.85152 3
    endloop
  endfacet
  facet normal -0.587782 0.809019 0
    outer loop
      vertex 2.10776 -2.34091 3
      vertex 1.575 -2.72798 17
      vertex 2.10776 -2.34091 17
    endloop
  endfacet
  facet normal -0.587782 0.809019 0
    outer loop
      vertex 1.575 -2.72798 17
      vertex 2.10776 -2.34091 3
      vertex 1.575 -2.72798 3
    endloop
  endfacet
  facet normal 0.207903 0.978149 -0
    outer loop
      vertex -0.329265 -3.13274 3
      vertex -0.973403 -2.99583 17
      vertex -0.329265 -3.13274 17
    endloop
  endfacet
  facet normal 0.207903 0.978149 0
    outer loop
      vertex -0.973403 -2.99583 17
      vertex -0.329265 -3.13274 3
      vertex -0.973403 -2.99583 3
    endloop
  endfacet
  facet normal 0.406739 0.913544 -0
    outer loop
      vertex -0.973403 -2.99583 3
      vertex -1.575 -2.72798 17
      vertex -0.973403 -2.99583 17
    endloop
  endfacet
  facet normal 0.406739 0.913544 0
    outer loop
      vertex -1.575 -2.72798 17
      vertex -0.973403 -2.99583 3
      vertex -1.575 -2.72798 3
    endloop
  endfacet
  facet normal 0.743151 0.669123 0
    outer loop
      vertex -2.10776 -2.34091 17
      vertex -2.5484 -1.85152 3
      vertex -2.5484 -1.85152 17
    endloop
  endfacet
  facet normal 0.743151 0.669123 0
    outer loop
      vertex -2.5484 -1.85152 3
      vertex -2.10776 -2.34091 17
      vertex -2.10776 -2.34091 3
    endloop
  endfacet
  facet normal 0.951059 0.309008 0
    outer loop
      vertex -2.87767 -1.28122 17
      vertex -3.08116 -0.654922 3
      vertex -3.08116 -0.654922 17
    endloop
  endfacet
  facet normal 0.951059 0.309008 0
    outer loop
      vertex -3.08116 -0.654922 3
      vertex -2.87767 -1.28122 17
      vertex -2.87767 -1.28122 3
    endloop
  endfacet
  facet normal 0.994521 0.104536 0
    outer loop
      vertex -3.08116 -0.654922 17
      vertex -3.15 0 3
      vertex -3.15 0 17
    endloop
  endfacet
  facet normal 0.994521 0.104536 0
    outer loop
      vertex -3.15 0 3
      vertex -3.08116 -0.654922 17
      vertex -3.08116 -0.654922 3
    endloop
  endfacet
  facet normal -0.406739 0.913544 0
    outer loop
      vertex 1.575 -2.72798 3
      vertex 0.973403 -2.99583 17
      vertex 1.575 -2.72798 17
    endloop
  endfacet
  facet normal -0.406739 0.913544 0
    outer loop
      vertex 0.973403 -2.99583 17
      vertex 1.575 -2.72798 3
      vertex 0.973403 -2.99583 3
    endloop
  endfacet
  facet normal -0.207903 0.978149 0
    outer loop
      vertex 0.973403 -2.99583 3
      vertex 0.329265 -3.13274 17
      vertex 0.973403 -2.99583 17
    endloop
  endfacet
  facet normal -0.207903 0.978149 0
    outer loop
      vertex 0.329265 -3.13274 17
      vertex 0.973403 -2.99583 3
      vertex 0.329265 -3.13274 3
    endloop
  endfacet
  facet normal -1 0 0
    outer loop
      vertex -3.15 4.28813 3
      vertex -3.15 4.4 17
      vertex -3.15 4.4 3
    endloop
  endfacet
  facet normal -1 -0 0
    outer loop
      vertex -3.15 4.4 17
      vertex -3.15 4.28813 3
      vertex -3.15 4.28813 17
    endloop
  endfacet
  facet normal 1 -0 0
    outer loop
      vertex 3.15 4.28813 17
      vertex 3.15 4.4 3
      vertex 3.15 4.4 17
    endloop
  endfacet
  facet normal 1 0 0
    outer loop
      vertex 3.15 4.4 3
      vertex 3.15 4.28813 17
      vertex 3.15 4.28813 3
    endloop
  endfacet
  facet normal 0 -1 0
    outer loop
      vertex -2.02643 2.4 3
      vertex 2.02643 2.4 17
      vertex -2.02643 2.4 17
    endloop
  endfacet
  facet normal 0 -1 -0
    outer loop
      vertex 2.02643 2.4 17
      vertex -2.02643 2.4 3
      vertex 2.02643 2.4 3
    endloop
  endfacet
  facet normal 0 1 -0
    outer loop
      vertex 3.15 4.4 3
      vertex 2.99602 4.4 17
      vertex 3.15 4.4 17
    endloop
  endfacet
  facet normal 0 1 0
    outer loop
      vertex 2.99602 4.4 17
      vertex 3.15 4.4 3
      vertex 2.99602 4.4 3
    endloop
  endfacet
  facet normal 0 1 -0
    outer loop
      vertex -2.99602 4.4 3
      vertex -3.15 4.4 17
      vertex -2.99602 4.4 17
    endloop
  endfacet
  facet normal 0 1 0
    outer loop
      vertex -3.15 4.4 17
      vertex -2.99602 4.4 3
      vertex -3.15 4.4 3
    endloop
  endfacet
endsolid OpenSCAD_Model
